<svg width="400" height="84" viewBox="0 0 400 84" fill="none" xmlns="http://www.w3.org/2000/svg">
<path d="M17.5227 44.8182V50.9545H0.681818V44.8182H17.5227ZM4.19318 71V43.4886C4.19318 41.4659 4.57386 39.7898 5.33523 38.4602C6.09659 37.1193 7.15341 36.1193 8.50568 35.4602C9.85795 34.7898 11.4205 34.4545 13.1932 34.4545C14.3523 34.4545 15.4432 34.5455 16.4659 34.7273C17.5 34.8977 18.267 35.0511 18.767 35.1875L17.4375 41.2898C17.1307 41.1875 16.7557 41.1023 16.3125 41.0341C15.8807 40.9659 15.4716 40.9318 15.0852 40.9318C14.108 40.9318 13.4375 41.1477 13.0739 41.5795C12.7102 42.0114 12.5284 42.6023 12.5284 43.3523V71H4.19318ZM32.9276 71.4943C30.1889 71.4943 27.8253 70.9545 25.8366 69.875C23.8594 68.7841 22.3366 67.233 21.2685 65.2216C20.2116 63.1989 19.6832 60.7955 19.6832 58.0114C19.6832 55.3068 20.2173 52.9432 21.2855 50.9205C22.3537 48.8864 23.8594 47.3068 25.8026 46.1818C27.7457 45.0455 30.0355 44.4773 32.6719 44.4773C34.5355 44.4773 36.2401 44.767 37.7855 45.3466C39.331 45.9261 40.6662 46.7841 41.7912 47.9205C42.9162 49.0568 43.7912 50.4602 44.4162 52.1307C45.0412 53.7898 45.3537 55.6932 45.3537 57.8409V59.9205H22.598V55.0795H37.598C37.5866 54.1932 37.3764 53.4034 36.9673 52.7102C36.5582 52.017 35.9957 51.4773 35.2798 51.0909C34.5753 50.6932 33.7628 50.4943 32.8423 50.4943C31.9105 50.4943 31.0753 50.7045 30.3366 51.125C29.598 51.5341 29.0128 52.0966 28.581 52.8125C28.1491 53.517 27.9219 54.3182 27.8991 55.2159V60.142C27.8991 61.2102 28.1094 62.1477 28.5298 62.9545C28.9503 63.75 29.5469 64.3693 30.3196 64.8125C31.0923 65.2557 32.0128 65.4773 33.081 65.4773C33.8196 65.4773 34.4901 65.375 35.0923 65.1705C35.6946 64.9659 36.2116 64.6648 36.6435 64.267C37.0753 63.8693 37.3991 63.3807 37.6151 62.8011L45.2685 63.0227C44.9503 64.7386 44.2514 66.233 43.1719 67.5057C42.1037 68.767 40.7003 69.75 38.9616 70.4545C37.223 71.1477 35.2116 71.4943 32.9276 71.4943ZM61.8494 71.4943C59.1108 71.4943 56.7472 70.9545 54.7585 69.875C52.7813 68.7841 51.2585 67.233 50.1903 65.2216C49.1335 63.1989 48.6051 60.7955 48.6051 58.0114C48.6051 55.3068 49.1392 52.9432 50.2074 50.9205C51.2756 48.8864 52.7812 47.3068 54.7244 46.1818C56.6676 45.0455 58.9574 44.4773 61.5938 44.4773C63.4574 44.4773 65.1619 44.767 66.7074 45.3466C68.2528 45.9261 69.5881 46.7841 70.7131 47.9205C71.8381 49.0568 72.7131 50.4602 73.3381 52.1307C73.9631 53.7898 74.2756 55.6932 74.2756 57.8409V59.9205H51.5199V55.0795H66.5199C66.5085 54.1932 66.2983 53.4034 65.8892 52.7102C65.4801 52.017 64.9176 51.4773 64.2017 51.0909C63.4972 50.6932 62.6847 50.4943 61.7642 50.4943C60.8324 50.4943 59.9972 50.7045 59.2585 51.125C58.5199 51.5341 57.9347 52.0966 57.5028 52.8125C57.071 53.517 56.8438 54.3182 56.821 55.2159V60.142C56.821 61.2102 57.0313 62.1477 57.4517 62.9545C57.8722 63.75 58.4688 64.3693 59.2415 64.8125C60.0142 65.2557 60.9347 65.4773 62.0028 65.4773C62.7415 65.4773 63.4119 65.375 64.0142 65.1705C64.6165 64.9659 65.1335 64.6648 65.5653 64.267C65.9972 63.8693 66.321 63.3807 66.5369 62.8011L74.1903 63.0227C73.8722 64.7386 73.1733 66.233 72.0938 67.5057C71.0256 68.767 69.6222 69.75 67.8835 70.4545C66.1449 71.1477 64.1335 71.4943 61.8494 71.4943ZM86.8679 36.0909V71H78.5327V36.0909H86.8679ZM92.1733 71V44.8182H100.509V71H92.1733ZM96.3494 41.767C95.179 41.767 94.1733 41.3807 93.3324 40.608C92.4915 39.8239 92.071 38.8807 92.071 37.7784C92.071 36.6875 92.4915 35.7557 93.3324 34.983C94.1733 34.1989 95.179 33.8068 96.3494 33.8068C97.5313 33.8068 98.5369 34.1989 99.3665 34.983C100.207 35.7557 100.628 36.6875 100.628 37.7784C100.628 38.8807 100.207 39.8239 99.3665 40.608C98.5369 41.3807 97.5313 41.767 96.3494 41.767ZM114.149 56.0682V71H105.814V44.8182H113.74V49.625H114.03C114.609 48.0227 115.598 46.767 116.996 45.858C118.393 44.9375 120.058 44.4773 121.99 44.4773C123.831 44.4773 125.428 44.892 126.78 45.7216C128.143 46.5398 129.2 47.6875 129.95 49.1648C130.712 50.6307 131.087 52.3466 131.075 54.3125V71H122.74V55.9489C122.751 54.4943 122.382 53.358 121.632 52.5398C120.893 51.7216 119.865 51.3125 118.547 51.3125C117.672 51.3125 116.899 51.5057 116.229 51.892C115.57 52.267 115.058 52.8068 114.695 53.5114C114.342 54.2159 114.161 55.0682 114.149 56.0682ZM148.44 81.3636C145.952 81.3636 143.821 81.017 142.048 80.3239C140.276 79.6307 138.884 78.6818 137.872 77.4773C136.861 76.2727 136.253 74.9091 136.048 73.3864L143.94 72.9432C144.088 73.4773 144.361 73.9432 144.759 74.3409C145.168 74.7386 145.696 75.0455 146.344 75.2614C147.003 75.4773 147.776 75.5852 148.662 75.5852C150.06 75.5852 151.213 75.2443 152.122 74.5625C153.043 73.892 153.503 72.7159 153.503 71.0341V66.4318H153.213C152.884 67.2386 152.384 67.9602 151.713 68.5966C151.043 69.233 150.207 69.733 149.207 70.0966C148.219 70.4602 147.082 70.642 145.798 70.642C143.889 70.642 142.139 70.1989 140.548 69.3125C138.969 68.4148 137.702 67.0284 136.747 65.1534C135.804 63.267 135.332 60.8409 135.332 57.875C135.332 54.8182 135.821 52.3011 136.798 50.3239C137.776 48.3352 139.054 46.8636 140.634 45.9091C142.224 44.9545 143.935 44.4773 145.764 44.4773C147.139 44.4773 148.315 44.7159 149.293 45.1932C150.281 45.6591 151.094 46.2614 151.73 47C152.366 47.7386 152.849 48.5057 153.179 49.3011H153.418V44.8182H161.719V71.1023C161.719 73.3182 161.162 75.1875 160.048 76.7102C158.935 78.233 157.378 79.3864 155.378 80.1705C153.378 80.9659 151.065 81.3636 148.44 81.3636ZM148.696 64.5739C149.707 64.5739 150.571 64.3068 151.287 63.7727C152.003 63.2386 152.554 62.4716 152.94 61.4716C153.327 60.4716 153.52 59.2727 153.52 57.875C153.52 56.4545 153.327 55.233 152.94 54.2102C152.565 53.1761 152.014 52.3807 151.287 51.8239C150.571 51.267 149.707 50.9886 148.696 50.9886C147.662 50.9886 146.787 51.2727 146.071 51.8409C145.355 52.4091 144.81 53.2102 144.435 54.2443C144.071 55.267 143.889 56.4773 143.889 57.875C143.889 59.2727 144.077 60.4716 144.452 61.4716C144.827 62.4716 145.366 63.2386 146.071 63.7727C146.787 64.3068 147.662 64.5739 148.696 64.5739ZM189.891 52.8125L182.237 53.017C182.158 52.4716 181.942 51.9886 181.589 51.5682C181.237 51.1364 180.777 50.8011 180.209 50.5625C179.652 50.3125 179.004 50.1875 178.266 50.1875C177.3 50.1875 176.476 50.3807 175.794 50.767C175.124 51.1534 174.794 51.6761 174.805 52.3352C174.794 52.8466 174.999 53.2898 175.419 53.6648C175.851 54.0398 176.618 54.3409 177.72 54.5682L182.766 55.5227C185.379 56.0227 187.322 56.8523 188.595 58.0114C189.879 59.1705 190.527 60.7045 190.538 62.6136C190.527 64.4091 189.993 65.9716 188.936 67.3011C187.891 68.6307 186.459 69.6648 184.641 70.4034C182.822 71.1307 180.743 71.4943 178.402 71.4943C174.663 71.4943 171.714 70.7273 169.555 69.1932C167.408 67.6477 166.18 65.5795 165.874 62.9886L174.107 62.7841C174.288 63.7386 174.76 64.4659 175.521 64.9659C176.283 65.4659 177.254 65.7159 178.436 65.7159C179.504 65.7159 180.374 65.517 181.044 65.1193C181.714 64.7216 182.055 64.1932 182.067 63.5341C182.055 62.9432 181.794 62.4716 181.283 62.1193C180.771 61.7557 179.97 61.4716 178.879 61.267L174.311 60.3977C171.686 59.9205 169.732 59.0398 168.447 57.7557C167.163 56.4602 166.527 54.8125 166.538 52.8125C166.527 51.0625 166.993 49.5682 167.936 48.3295C168.879 47.0795 170.22 46.125 171.959 45.4659C173.697 44.8068 175.749 44.4773 178.112 44.4773C181.658 44.4773 184.453 45.2216 186.499 46.7102C188.544 48.1875 189.675 50.2216 189.891 52.8125ZM219.733 44.8182V50.9545H203.216V44.8182H219.733ZM206.676 38.5455H215.011V62.767C215.011 63.2784 215.091 63.6932 215.25 64.0114C215.42 64.3182 215.665 64.5398 215.983 64.6761C216.301 64.8011 216.682 64.8636 217.125 64.8636C217.443 64.8636 217.778 64.8352 218.131 64.7784C218.494 64.7102 218.767 64.6534 218.949 64.608L220.21 70.625C219.813 70.7386 219.25 70.8807 218.523 71.0511C217.807 71.2216 216.949 71.3295 215.949 71.375C213.994 71.4659 212.318 71.2386 210.92 70.6932C209.534 70.1364 208.472 69.2727 207.733 68.1023C207.006 66.9318 206.653 65.4602 206.676 63.6875V38.5455ZM223.986 71V44.8182H232.082V49.5909H232.355C232.832 47.8636 233.611 46.5795 234.69 45.7386C235.77 44.8864 237.026 44.4602 238.457 44.4602C238.844 44.4602 239.241 44.4886 239.651 44.5455C240.06 44.5909 240.44 44.6648 240.793 44.767V52.0114C240.395 51.875 239.872 51.767 239.224 51.6875C238.588 51.608 238.02 51.5682 237.52 51.5682C236.531 51.5682 235.639 51.7898 234.844 52.233C234.06 52.6648 233.44 53.2727 232.986 54.0568C232.543 54.8295 232.321 55.7386 232.321 56.7841V71H223.986ZM250.585 71.4432C248.915 71.4432 247.432 71.1648 246.136 70.608C244.852 70.0398 243.835 69.1875 243.085 68.0511C242.347 66.9034 241.977 65.4659 241.977 63.7386C241.977 62.2841 242.233 61.0568 242.744 60.0568C243.256 59.0568 243.96 58.2443 244.858 57.6193C245.756 56.9943 246.79 56.5227 247.96 56.2045C249.131 55.875 250.381 55.6534 251.71 55.5398C253.199 55.4034 254.398 55.2614 255.307 55.1136C256.216 54.9545 256.875 54.733 257.284 54.4489C257.705 54.1534 257.915 53.7386 257.915 53.2045V53.1193C257.915 52.2443 257.614 51.5682 257.011 51.0909C256.409 50.6136 255.597 50.375 254.574 50.375C253.472 50.375 252.585 50.6136 251.915 51.0909C251.244 51.5682 250.818 52.2273 250.636 53.0682L242.949 52.7955C243.176 51.2045 243.761 49.7841 244.705 48.5341C245.659 47.2727 246.966 46.2841 248.625 45.5682C250.295 44.8409 252.301 44.4773 254.642 44.4773C256.313 44.4773 257.852 44.6761 259.261 45.0739C260.67 45.4602 261.898 46.0284 262.943 46.7784C263.989 47.517 264.795 48.4261 265.364 49.5057C265.943 50.5852 266.233 51.8182 266.233 53.2045V71H258.392V67.3523H258.188C257.722 68.2386 257.125 68.9886 256.398 69.6023C255.682 70.2159 254.835 70.6761 253.858 70.983C252.892 71.2898 251.801 71.4432 250.585 71.4432ZM253.159 65.9886C254.057 65.9886 254.864 65.8068 255.58 65.4432C256.307 65.0795 256.886 64.5795 257.318 63.9432C257.75 63.2955 257.966 62.5455 257.966 61.6932V59.2045C257.727 59.3295 257.438 59.4432 257.097 59.5455C256.767 59.6477 256.403 59.7443 256.006 59.8352C255.608 59.9261 255.199 60.0057 254.778 60.0739C254.358 60.142 253.955 60.2045 253.568 60.2614C252.784 60.3864 252.114 60.5795 251.557 60.8409C251.011 61.1023 250.591 61.4432 250.295 61.8636C250.011 62.2727 249.869 62.7614 249.869 63.3295C249.869 64.1932 250.176 64.8523 250.79 65.3068C251.415 65.7614 252.205 65.9886 253.159 65.9886ZM283.551 71.4943C280.79 71.4943 278.42 70.9261 276.443 69.7898C274.477 68.6534 272.966 67.0739 271.909 65.0511C270.852 63.017 270.324 60.6648 270.324 57.9943C270.324 55.3125 270.852 52.9602 271.909 50.9375C272.977 48.9034 274.494 47.3182 276.46 46.1818C278.438 45.0455 280.795 44.4773 283.534 44.4773C285.955 44.4773 288.063 44.9148 289.858 45.7898C291.665 46.6648 293.074 47.9034 294.085 49.5057C295.108 51.0966 295.648 52.9659 295.705 55.1136H287.915C287.756 53.7727 287.301 52.7216 286.551 51.9602C285.813 51.1989 284.847 50.8182 283.653 50.8182C282.688 50.8182 281.841 51.0909 281.114 51.6364C280.386 52.1705 279.818 52.9659 279.409 54.0227C279.011 55.0682 278.812 56.3636 278.812 57.9091C278.812 59.4545 279.011 60.7614 279.409 61.8295C279.818 62.8864 280.386 63.6875 281.114 64.233C281.841 64.767 282.688 65.0341 283.653 65.0341C284.426 65.0341 285.108 64.8693 285.699 64.5398C286.301 64.2102 286.795 63.7273 287.182 63.0909C287.568 62.4432 287.812 61.6591 287.915 60.7386H295.705C295.625 62.8977 295.085 64.7841 294.085 66.3977C293.097 68.0114 291.705 69.267 289.909 70.1648C288.125 71.0511 286.006 71.4943 283.551 71.4943ZM307.487 64.1307L307.521 54.1932H308.68L316.044 44.8182H325.487L314.544 58.25H312.345L307.487 64.1307ZM299.97 71V36.0909H308.305V71H299.97ZM316.232 71L309.379 60.125L314.868 54.2102L325.862 71H316.232ZM339.631 71.4943C336.892 71.4943 334.528 70.9545 332.54 69.875C330.563 68.7841 329.04 67.233 327.972 65.2216C326.915 63.1989 326.386 60.7955 326.386 58.0114C326.386 55.3068 326.92 52.9432 327.989 50.9205C329.057 48.8864 330.562 47.3068 332.506 46.1818C334.449 45.0455 336.739 44.4773 339.375 44.4773C341.239 44.4773 342.943 44.767 344.489 45.3466C346.034 45.9261 347.369 46.7841 348.494 47.9205C349.619 49.0568 350.494 50.4602 351.119 52.1307C351.744 53.7898 352.057 55.6932 352.057 57.8409V59.9205H329.301V55.0795H344.301C344.29 54.1932 344.08 53.4034 343.67 52.7102C343.261 52.017 342.699 51.4773 341.983 51.0909C341.278 50.6932 340.466 50.4943 339.545 50.4943C338.614 50.4943 337.778 50.7045 337.04 51.125C336.301 51.5341 335.716 52.0966 335.284 52.8125C334.852 53.517 334.625 54.3182 334.602 55.2159V60.142C334.602 61.2102 334.813 62.1477 335.233 62.9545C335.653 63.75 336.25 64.3693 337.023 64.8125C337.795 65.2557 338.716 65.4773 339.784 65.4773C340.523 65.4773 341.193 65.375 341.795 65.1705C342.398 64.9659 342.915 64.6648 343.347 64.267C343.778 63.8693 344.102 63.3807 344.318 62.8011L351.972 63.0227C351.653 64.7386 350.955 66.233 349.875 67.5057C348.807 68.767 347.403 69.75 345.665 70.4545C343.926 71.1477 341.915 71.4943 339.631 71.4943ZM356.314 71V44.8182H364.411V49.5909H364.683C365.161 47.8636 365.939 46.5795 367.018 45.7386C368.098 44.8864 369.354 44.4602 370.786 44.4602C371.172 44.4602 371.57 44.4886 371.979 44.5455C372.388 44.5909 372.768 44.6648 373.121 44.767V52.0114C372.723 51.875 372.2 51.767 371.553 51.6875C370.916 51.608 370.348 51.5682 369.848 51.5682C368.859 51.5682 367.967 51.7898 367.172 52.233C366.388 52.6648 365.768 53.2727 365.314 54.0568C364.871 54.8295 364.649 55.7386 364.649 56.7841V71H356.314Z" fill="white"/>
<rect x="0.5" y="0.5" width="15" height="15" rx="3.5" fill="#18181B" stroke="#27272A"/>
<rect x="20.5" y="0.5" width="15" height="15" rx="3.5" fill="#4C1D95" stroke="#6D28D9"/>
<rect x="40.5" y="0.5" width="15" height="15" rx="3.5" fill="#5B21B6" stroke="#7C3AED"/>
<rect x="60.5" y="0.5" width="15" height="15" rx="3.5" fill="#6D28D9" stroke="#8B5CF6"/>
<rect x="80.5" y="0.5" width="15" height="15" rx="3.5" fill="#7C3AED" stroke="#A78BFA"/>
<rect x="100.5" y="0.5" width="15" height="15" rx="3.5" fill="#8B5CF6" stroke="#C4B5FD"/>
</svg>
