<?xml version="1.0" standalone="no"?>
<!DOCTYPE svg PUBLIC "-//W3C//DTD SVG 20010904//EN"
 "http://www.w3.org/TR/2001/REC-SVG-20010904/DTD/svg10.dtd">
<svg version="1.0" xmlns="http://www.w3.org/2000/svg"
 width="800.000000pt" height="168.000000pt" viewBox="0 0 800.000000 168.000000"
 preserveAspectRatio="xMidYMid meet">

<g transform="translate(0.000000,168.000000) scale(0.100000,-0.100000)"
fill="#000000" stroke="none">
<path d="M0 840 l0 -840 4000 0 4000 0 0 840 0 840 -2872 -1 c-1986 0 -2866
-4 -2852 -11 34 -16 44 -51 44 -148 0 -144 -16 -160 -160 -160 -144 0 -160 16
-160 160 0 97 10 132 44 148 16 8 -6 11 -89 11 -72 0 -103 -3 -89 -9 43 -17
54 -48 54 -153 0 -96 -1 -99 -30 -129 l-30 -30 -106 4 c-103 3 -107 4 -131 32
-24 28 -25 34 -21 133 3 100 4 106 31 129 l28 24 -830 0 -831 0 0 -840z m1987
138 c47 -44 17 -126 -46 -129 -45 -2 -55 1 -78 27 -30 33 -29 69 2 99 32 33
89 34 122 3z m-1647 6 c31 -7 32 -7 25 -52 -10 -67 -13 -72 -54 -72 -44 0 -61
-14 -61 -52 0 -27 2 -28 50 -28 l50 0 0 -60 0 -60 -50 0 -50 0 0 -200 0 -200
-85 0 -85 0 0 200 0 200 -35 0 -35 0 0 60 0 60 33 0 c32 0 33 1 44 59 6 32 19
71 29 86 34 52 129 77 224 59z m1400 -374 l0 -350 -85 0 -85 0 0 350 0 350 85
0 85 0 0 -350z m4432 168 l3 -181 70 91 70 91 93 0 c72 1 91 -2 86 -11 -5 -7
-43 -56 -86 -109 -43 -53 -78 -100 -78 -104 0 -5 41 -70 90 -146 50 -76 90
-140 90 -143 0 -4 -42 -6 -93 -6 l-94 0 -51 83 c-76 121 -68 113 -86 98 -12
-10 -16 -33 -16 -97 l0 -84 -85 0 -85 0 0 350 0 350 85 0 85 0 2 -182z m-1872
67 l0 -65 48 0 47 0 0 -57 0 -58 -47 -3 -48 -3 0 -128 c0 -140 7 -158 54 -149
23 5 26 1 35 -44 17 -76 17 -76 -43 -83 -92 -12 -164 13 -193 68 -14 25 -18
63 -21 185 l-4 152 -34 0 -34 0 0 60 0 60 35 0 35 0 0 65 0 65 85 0 85 0 0
-65z m-3565 -66 c57 -15 122 -71 147 -128 10 -25 22 -74 25 -108 l6 -63 -177
0 c-146 0 -176 -2 -176 -14 0 -81 104 -125 168 -71 26 22 40 25 101 25 78 0
84 -6 56 -60 -46 -88 -195 -133 -319 -96 -111 33 -170 123 -170 256 0 195 148
307 339 259z m622 -17 c79 -41 119 -114 125 -227 l3 -50 -172 -3 -173 -2 0
-25 c0 -13 11 -37 24 -52 21 -24 32 -28 74 -28 38 0 56 5 74 23 21 19 35 22
97 22 l73 0 -7 -27 c-35 -141 -286 -191 -416 -84 -57 47 -83 111 -83 206 -1
68 3 88 27 138 48 97 124 139 242 133 46 -2 84 -10 112 -24z m1156 14 c41 -17
81 -62 96 -105 7 -21 11 -108 11 -222 l0 -189 -84 0 -85 0 0 153 c0 83 -1 162
-1 175 0 34 -34 62 -76 62 -82 0 -94 -30 -94 -236 l0 -154 -80 0 -80 0 0 260
0 261 78 -3 77 -3 0 -42 -1 -42 30 36 c16 19 43 41 60 49 40 17 108 18 149 0z
m471 0 c18 -7 45 -29 59 -47 l27 -34 0 43 0 42 80 0 80 0 0 -290 c0 -231 -3
-297 -14 -318 -62 -120 -283 -158 -418 -73 -41 26 -88 94 -74 108 3 3 38 8 77
11 66 4 73 3 89 -18 14 -18 30 -24 73 -28 50 -4 58 -2 81 21 23 23 26 34 26
93 l0 67 -22 -28 c-65 -83 -234 -69 -295 24 -34 51 -46 107 -41 201 5 91 25
145 70 187 53 50 138 66 202 39z m683 -1 c52 -15 123 -79 123 -109 0 -8 3 -21
6 -30 5 -14 -5 -16 -73 -16 -68 0 -80 3 -91 20 -31 49 -132 45 -132 -5 0 -31
17 -40 116 -58 45 -9 100 -25 123 -36 65 -34 88 -101 57 -174 -63 -151 -384
-156 -461 -6 -28 54 -23 59 63 59 71 0 81 -2 102 -25 18 -20 33 -25 70 -25 49
0 70 13 70 42 0 23 -27 36 -97 49 -139 24 -195 61 -209 135 -15 79 36 154 123
181 54 16 151 16 210 -2z m1151 -62 l3 -73 -44 6 c-49 7 -99 -13 -117 -45 -6
-11 -10 -89 -10 -180 l0 -161 -85 0 -85 0 0 260 0 260 80 0 80 0 0 -47 1 -48
20 37 c24 47 62 68 114 65 l40 -2 3 -72z m363 67 c52 -14 100 -49 123 -90 19
-32 21 -54 23 -232 l2 -198 -79 0 -80 0 0 37 0 37 -32 -31 c-61 -58 -141 -69
-218 -30 -105 52 -108 207 -5 264 25 13 74 26 130 33 92 11 115 21 115 48 0
53 -93 72 -134 27 -21 -22 -31 -25 -96 -25 l-72 0 7 28 c14 57 70 112 135 130
47 13 136 14 181 2z m574 -1 c78 -20 155 -105 155 -173 0 -26 -1 -26 -74 -26
-73 0 -74 0 -86 30 -15 35 -37 50 -75 50 -63 0 -95 -47 -95 -140 0 -94 32
-140 98 -140 31 0 65 30 77 68 6 22 11 23 81 20 69 -3 74 -4 74 -26 0 -31 -27
-92 -53 -120 -45 -49 -95 -67 -187 -67 -68 0 -93 5 -125 22 -89 47 -134 128
-135 237 0 88 15 136 58 186 68 80 171 108 287 79z m1123 -3 c97 -34 152 -112
160 -228 l5 -68 -178 0 -177 0 6 -27 c10 -40 60 -83 97 -83 33 0 89 25 89 40
0 6 35 10 81 10 70 0 80 -2 75 -16 -3 -9 -6 -20 -6 -24 0 -19 -64 -82 -104
-103 -60 -31 -204 -31 -262 0 -97 52 -140 139 -132 267 8 123 69 203 178 237
42 12 125 10 168 -5z m582 -58 l0 -73 -55 0 c-46 0 -59 -4 -82 -28 l-28 -27
-3 -165 -3 -165 -80 0 -79 0 0 260 0 260 80 0 80 0 0 -47 1 -48 14 32 c18 41
69 73 118 73 l37 0 0 -72z m-5450 -198 l0 -260 -85 0 -85 0 0 260 0 260 85 0
85 0 0 -260z"/>
<path d="M589 641 c-52 -52 -42 -61 66 -61 87 0 95 2 95 19 0 11 -14 31 -31
45 -43 36 -91 35 -130 -3z"/>
<path d="M1169 641 c-52 -52 -42 -61 66 -61 108 0 118 9 66 61 -22 21 -39 29
-66 29 -27 0 -44 -8 -66 -29z"/>
<path d="M2927 649 c-63 -37 -61 -215 2 -249 73 -38 141 19 141 119 0 105 -73
171 -143 130z"/>
<path d="M5091 479 c-82 -16 -116 -62 -75 -103 46 -47 144 7 144 78 0 39 0 39
-69 25z"/>
<path d="M6741 656 c-22 -12 -50 -50 -51 -68 0 -5 45 -8 99 -8 l100 0 -11 30
c-17 52 -86 74 -137 46z"/>
<path d="M1637 1642 c-14 -15 -17 -40 -17 -124 0 -138 0 -138 142 -138 138 0
138 0 138 143 0 135 -2 137 -146 137 -85 0 -103 -3 -117 -18z"/>
<path d="M2053 1650 c-28 -11 -36 -54 -31 -161 4 -107 10 -111 145 -107 67 2
107 8 115 16 18 18 18 226 0 244 -16 16 -196 22 -229 8z"/>
</g>
</svg>
